<svg width="48" height="27" viewBox="0 0 48 27" fill="none" xmlns="http://www.w3.org/2000/svg">
<path d="M10 3C6.13401 3 3 6.13401 3 10V17C3 20.866 6.13401 24 10 24H17V16H12V13H17V3H10ZM20 27H10L9.48535 26.9873C4.20167 26.7195 0 22.3502 0 17V10C2.49657e-07 4.64975 4.20167 0.280543 9.48535 0.0126953L10 0H38C43.5228 0 48 4.47715 48 10V17L47.9873 17.5146C47.7195 22.7983 43.3502 27 38 27H29V24C30.6569 24 32 22.6569 32 21V16H20V27ZM34.1953 3C34.7061 3.88272 35 4.90678 35 6V21C35 22.093 34.707 23.1174 34.1963 24H38C41.866 24 45 20.866 45 17V10C45 6.13401 41.866 3 38 3H34.1953ZM20 13H32V6C32 4.34315 30.6569 3 29 3H20V13Z" fill="white"/>
</svg>
